<mxfile host="app.diagrams.net" modified="2020-09-29T16:50:35.484Z" agent="5.0 (Windows NT 10.0; Win64; x64) AppleWebKit/537.36 (KHTML, like Gecko) Chrome/85.0.4183.121 Safari/537.36" etag="U2O7NeJQ098IEQx0E9h4" version="13.7.6" type="github">
  <diagram name="Page-1" id="42789a77-a242-8287-6e28-9cd8cfd52e62">
    <mxGraphModel dx="1422" dy="794" grid="1" gridSize="10" guides="1" tooltips="1" connect="1" arrows="1" fold="1" page="1" pageScale="1" pageWidth="1100" pageHeight="850" background="#ffffff" math="0" shadow="0">
      <root>
        <mxCell id="0" />
        <mxCell id="1" parent="0" />
        <mxCell id="ro3Jxmx6jSMcBMuphTp5-5" value="Data Format Specification&lt;br&gt;&lt;br&gt;&lt;br&gt;&lt;br&gt;&lt;br&gt;&lt;br&gt;&lt;br&gt;&lt;br&gt;&lt;br&gt;&lt;br&gt;&lt;br&gt;" style="rounded=0;whiteSpace=wrap;html=1;fillColor=none;" vertex="1" parent="1">
          <mxGeometry x="100" y="320" width="810" height="175" as="geometry" />
        </mxCell>
        <mxCell id="ro3Jxmx6jSMcBMuphTp5-1" value="Data Structure Orchestration&lt;br&gt;&lt;br&gt;&lt;br&gt;&lt;br&gt;&lt;br&gt;&lt;br&gt;" style="rounded=0;whiteSpace=wrap;html=1;fillColor=none;" vertex="1" parent="1">
          <mxGeometry x="100" y="160" width="810" height="100" as="geometry" />
        </mxCell>
        <mxCell id="1ea317790d2ca983-12" style="edgeStyle=none;rounded=1;html=1;labelBackgroundColor=none;startArrow=none;startFill=0;startSize=5;endArrow=classicThin;endFill=1;endSize=5;jettySize=auto;orthogonalLoop=1;strokeWidth=1;fontFamily=Verdana;fontSize=12;strokeColor=#CCCCCC;" parent="1" source="1ea317790d2ca983-2" target="1ea317790d2ca983-1" edge="1">
          <mxGeometry relative="1" as="geometry" />
        </mxCell>
        <mxCell id="1ea317790d2ca983-13" value="" style="edgeStyle=none;rounded=1;html=1;labelBackgroundColor=none;startArrow=none;startFill=0;startSize=5;endArrow=classicThin;endFill=1;endSize=5;jettySize=auto;orthogonalLoop=1;strokeColor=#B3B3B3;strokeWidth=1;fontFamily=Verdana;fontSize=12" parent="1" source="1ea317790d2ca983-9" target="1ea317790d2ca983-1" edge="1">
          <mxGeometry relative="1" as="geometry" />
        </mxCell>
        <mxCell id="1ea317790d2ca983-14" value="" style="edgeStyle=none;rounded=1;html=1;labelBackgroundColor=none;startArrow=none;startFill=0;startSize=5;endArrow=classicThin;endFill=1;endSize=5;jettySize=auto;orthogonalLoop=1;strokeColor=#B3B3B3;strokeWidth=1;fontFamily=Verdana;fontSize=12" parent="1" source="1ea317790d2ca983-3" target="1ea317790d2ca983-1" edge="1">
          <mxGeometry relative="1" as="geometry" />
        </mxCell>
        <mxCell id="1ea317790d2ca983-1" value="OGC API" style="ellipse;whiteSpace=wrap;html=1;rounded=0;shadow=1;comic=0;labelBackgroundColor=none;strokeWidth=1;fontFamily=Verdana;fontSize=12;align=center;" parent="1" vertex="1">
          <mxGeometry x="450" y="80" width="90" height="60" as="geometry" />
        </mxCell>
        <mxCell id="1ea317790d2ca983-2" value="&lt;span&gt;CDB&lt;/span&gt;" style="ellipse;whiteSpace=wrap;html=1;rounded=0;shadow=1;comic=0;labelBackgroundColor=none;strokeWidth=1;fontFamily=Verdana;fontSize=12;align=center;" parent="1" vertex="1">
          <mxGeometry x="457.5" y="190" width="75" height="50" as="geometry" />
        </mxCell>
        <mxCell id="1ea317790d2ca983-3" value="&lt;span&gt;GeoPackages&lt;/span&gt;" style="ellipse;whiteSpace=wrap;html=1;rounded=0;shadow=1;comic=0;labelBackgroundColor=none;strokeWidth=1;fontFamily=Verdana;fontSize=12;align=center;" parent="1" vertex="1">
          <mxGeometry x="675" y="190" width="125" height="50" as="geometry" />
        </mxCell>
        <mxCell id="1ea317790d2ca983-5" value="&lt;span&gt;Features Content&lt;/span&gt;" style="ellipse;whiteSpace=wrap;html=1;rounded=0;shadow=1;comic=0;labelBackgroundColor=none;strokeWidth=1;fontFamily=Verdana;fontSize=12;align=center;" parent="1" vertex="1">
          <mxGeometry x="610" y="700" width="125" height="50" as="geometry" />
        </mxCell>
        <mxCell id="1ea317790d2ca983-8" value="Raster Content" style="ellipse;whiteSpace=wrap;html=1;rounded=0;shadow=1;comic=0;labelBackgroundColor=none;strokeWidth=1;fontFamily=Verdana;fontSize=12;align=center;" parent="1" vertex="1">
          <mxGeometry x="440" y="700" width="110" height="50" as="geometry" />
        </mxCell>
        <mxCell id="1ea317790d2ca983-9" value="GeoVolumes" style="ellipse;whiteSpace=wrap;html=1;rounded=0;shadow=1;comic=0;labelBackgroundColor=none;strokeWidth=1;fontFamily=Verdana;fontSize=12;align=center;" parent="1" vertex="1">
          <mxGeometry x="195" y="190" width="105" height="50" as="geometry" />
        </mxCell>
        <mxCell id="1ea317790d2ca983-11" value="&lt;span&gt;3D Content&lt;/span&gt;" style="ellipse;whiteSpace=wrap;html=1;rounded=0;shadow=1;comic=0;labelBackgroundColor=none;strokeWidth=1;fontFamily=Verdana;fontSize=12;align=center;" parent="1" vertex="1">
          <mxGeometry x="285" y="700" width="105" height="50" as="geometry" />
        </mxCell>
        <mxCell id="ro3Jxmx6jSMcBMuphTp5-4" value="&lt;div&gt;&lt;ul&gt;&lt;li&gt;&lt;span&gt;JPEG2000, TIFF (Raster Content)&lt;/span&gt;&lt;/li&gt;&lt;li&gt;&lt;span&gt;OpenFlight, RGB (3D Content)&lt;/span&gt;&lt;/li&gt;&lt;li&gt;&lt;span&gt;DBX, SHP, DBF (Features Content)&lt;/span&gt;&lt;/li&gt;&lt;/ul&gt;&lt;/div&gt;" style="rounded=0;whiteSpace=wrap;html=1;align=left;" vertex="1" parent="1">
          <mxGeometry x="380" y="410" width="250" height="70" as="geometry" />
        </mxCell>
        <mxCell id="ro3Jxmx6jSMcBMuphTp5-6" value="" style="endArrow=classic;html=1;entryX=0.491;entryY=1.017;entryDx=0;entryDy=0;entryPerimeter=0;strokeColor=#B3B3B3;" edge="1" parent="1" target="ro3Jxmx6jSMcBMuphTp5-5">
          <mxGeometry width="50" height="50" relative="1" as="geometry">
            <mxPoint x="498" y="680" as="sourcePoint" />
            <mxPoint x="520" y="630" as="targetPoint" />
          </mxGeometry>
        </mxCell>
        <mxCell id="ro3Jxmx6jSMcBMuphTp5-7" value="" style="endArrow=classic;html=1;entryX=0.49;entryY=1;entryDx=0;entryDy=0;entryPerimeter=0;exitX=0.5;exitY=0;exitDx=0;exitDy=0;strokeColor=#B3B3B3;" edge="1" parent="1" source="1ea317790d2ca983-11" target="ro3Jxmx6jSMcBMuphTp5-5">
          <mxGeometry width="50" height="50" relative="1" as="geometry">
            <mxPoint x="508" y="690" as="sourcePoint" />
            <mxPoint x="507.71000000000004" y="507.9749999999999" as="targetPoint" />
          </mxGeometry>
        </mxCell>
        <mxCell id="ro3Jxmx6jSMcBMuphTp5-8" value="" style="endArrow=classic;html=1;entryX=0.488;entryY=1;entryDx=0;entryDy=0;exitX=0.5;exitY=0;exitDx=0;exitDy=0;entryPerimeter=0;strokeColor=#B3B3B3;" edge="1" parent="1" source="1ea317790d2ca983-5" target="ro3Jxmx6jSMcBMuphTp5-5">
          <mxGeometry width="50" height="50" relative="1" as="geometry">
            <mxPoint x="340" y="700" as="sourcePoint" />
            <mxPoint x="499.4000000000001" y="495" as="targetPoint" />
          </mxGeometry>
        </mxCell>
        <mxCell id="ro3Jxmx6jSMcBMuphTp5-10" value="&lt;div&gt;&lt;ul&gt;&lt;li&gt;&lt;span&gt;JPG, TIFF, PNG (Raster Content)&lt;/span&gt;&lt;/li&gt;&lt;li&gt;&lt;span&gt;i3S, GLTF, BD3M (3D Content)&lt;/span&gt;&lt;/li&gt;&lt;li&gt;&lt;span&gt;JSON (Features Content)&lt;/span&gt;&lt;/li&gt;&lt;/ul&gt;&lt;/div&gt;" style="rounded=0;whiteSpace=wrap;html=1;align=left;" vertex="1" parent="1">
          <mxGeometry x="120" y="410" width="250" height="70" as="geometry" />
        </mxCell>
        <mxCell id="ro3Jxmx6jSMcBMuphTp5-11" value="&lt;div&gt;&lt;ul&gt;&lt;li&gt;&lt;span&gt;JPG, TIFF, PNG (Raster Content)&lt;/span&gt;&lt;/li&gt;&lt;li&gt;&lt;span&gt;i3S, GLTF, BD3M (3D Content)&lt;/span&gt;&lt;/li&gt;&lt;li&gt;&lt;span&gt;JSON (Features Content)&lt;/span&gt;&lt;/li&gt;&lt;/ul&gt;&lt;/div&gt;" style="rounded=0;whiteSpace=wrap;html=1;align=left;" vertex="1" parent="1">
          <mxGeometry x="640" y="410" width="250" height="70" as="geometry" />
        </mxCell>
        <mxCell id="ro3Jxmx6jSMcBMuphTp5-12" value="" style="endArrow=classic;html=1;entryX=0.5;entryY=1;entryDx=0;entryDy=0;exitX=0.396;exitY=0.014;exitDx=0;exitDy=0;exitPerimeter=0;strokeColor=#B3B3B3;" edge="1" parent="1" source="ro3Jxmx6jSMcBMuphTp5-11" target="1ea317790d2ca983-3">
          <mxGeometry width="50" height="50" relative="1" as="geometry">
            <mxPoint x="750" y="480" as="sourcePoint" />
            <mxPoint x="800" y="430" as="targetPoint" />
          </mxGeometry>
        </mxCell>
        <mxCell id="ro3Jxmx6jSMcBMuphTp5-13" value="" style="endArrow=classic;html=1;strokeColor=#CCCCCC;entryX=0.5;entryY=1;entryDx=0;entryDy=0;exitX=0.396;exitY=0.014;exitDx=0;exitDy=0;exitPerimeter=0;" edge="1" parent="1">
          <mxGeometry width="50" height="50" relative="1" as="geometry">
            <mxPoint x="495.75" y="410" as="sourcePoint" />
            <mxPoint x="494.25" y="239.02" as="targetPoint" />
          </mxGeometry>
        </mxCell>
        <mxCell id="ro3Jxmx6jSMcBMuphTp5-14" value="" style="endArrow=classic;html=1;entryX=0.5;entryY=1;entryDx=0;entryDy=0;exitX=0.396;exitY=0.014;exitDx=0;exitDy=0;exitPerimeter=0;strokeColor=#B3B3B3;" edge="1" parent="1">
          <mxGeometry width="50" height="50" relative="1" as="geometry">
            <mxPoint x="248.25" y="410" as="sourcePoint" />
            <mxPoint x="246.75" y="239.01999999999998" as="targetPoint" />
          </mxGeometry>
        </mxCell>
        <mxCell id="ro3Jxmx6jSMcBMuphTp5-15" value="Scope of ISG Sprint&lt;br&gt;&lt;br&gt;&lt;br&gt;&lt;br&gt;&lt;br&gt;&lt;br&gt;&lt;br&gt;&lt;br&gt;&lt;br&gt;&lt;br&gt;&lt;br&gt;&lt;br&gt;&lt;br&gt;&lt;br&gt;&lt;br&gt;&lt;br&gt;&lt;br&gt;&lt;br&gt;&lt;br&gt;&lt;br&gt;&lt;br&gt;&lt;br&gt;&lt;br&gt;&lt;br&gt;&lt;br&gt;&lt;br&gt;" style="rounded=0;whiteSpace=wrap;html=1;perimeterSpacing=0;arcSize=7;glass=0;shadow=0;sketch=0;strokeColor=#0000CC;opacity=10;fillColor=#94D4FF;" vertex="1" parent="1">
          <mxGeometry x="100" y="130" width="280" height="380" as="geometry" />
        </mxCell>
      </root>
    </mxGraphModel>
  </diagram>
</mxfile>
